<?xml version="1.0" encoding="iso-8859-1"?>
<!-- Generator: Adobe Illustrator 18.1.1, SVG Export Plug-In . SVG Version: 6.00 Build 0)  -->
<svg version="1.1" id="Capa_1" xmlns="http://www.w3.org/2000/svg" xmlns:xlink="http://www.w3.org/1999/xlink" x="0px" y="0px"
	 viewBox="0 0 612 612" style="enable-background:new 0 0 612 612;" xml:space="preserve">
<g fill="#ffffff">
	<path d="M565.087,213.945H535.9L316.785,13.268c-5.41-4.627-13.81-4.627-19.221,0L74.605,213.945H46.913
		C20.787,213.945,0,234.732,0,260.858v18.438c0,17.655,9.966,33.031,23.848,40.719l49.191,255.279l0,0
		c1.566,9.254,10.749,26.909,35.38,26.909h399.007c15.377,0,26.909-8.471,30.753-21.499c0-0.783,0-0.783,0-1.566l49.974-259.835
		c13.81-8.471,23.848-23.065,23.848-40.719v-18.438C612,234.732,591.284,213.945,565.087,213.945z M306.819,42.526l186.796,170.708
		H116.89L306.819,42.526z M28.475,260.858c0-9.966,8.471-18.438,18.438-18.438h518.175c9.966,0,18.438,8.471,18.438,18.438v18.438
		c0,9.966-8.471,18.438-18.438,18.438H46.913c-9.966,0-18.438-8.471-18.438-18.438L28.475,260.858L28.475,260.858z M510.558,573.016
		c0,0.783-0.783,0.783-3.844,0.783H108.419c-1.566,0-6.122,0-6.905-3.844L53.818,325.496h504.364L510.558,573.016z M140.738,409.213
		c0-7.688,6.122-13.81,13.81-13.81H451.33c7.688,0,13.81,6.122,13.81,13.81c0,7.688-6.122,13.81-13.81,13.81H155.331
		C147.643,423.095,140.738,416.901,140.738,409.213z M449.763,488.445c0,7.688-6.122,13.81-13.81,13.81H172.274
		c-7.688,0-13.81-6.122-13.81-13.81s6.122-13.81,13.81-13.81h262.967C442.858,474.563,449.763,480.757,449.763,488.445z"/>
</g>
</svg>